<svg width="100" height="102" viewBox="0 0 100 102" fill="none" xmlns="http://www.w3.org/2000/svg">
<path d="M49.2998 90.2276C38.8016 90.2276 28.7334 85.9993 21.3101 78.4729C13.8868 70.9465 9.71645 60.7385 9.71645 50.0945C9.71645 39.4506 13.8868 29.2426 21.3101 21.7161C28.7334 14.1897 38.8016 9.96143 49.2998 9.96143C49.8523 9.96143 50.3822 10.184 50.7729 10.5801C51.1636 10.9762 51.3831 11.5135 51.3831 12.0737C51.3831 12.6339 51.1636 13.1712 50.7729 13.5673C50.3822 13.9634 49.8523 14.186 49.2998 14.186C43.4567 14.1508 37.6958 15.582 32.5306 18.352C27.3654 21.1219 22.9565 25.1446 19.6967 30.0613C16.4369 34.9781 14.4276 40.6362 13.8479 46.5313C13.2681 52.4264 14.136 58.3754 16.3741 63.8479C18.6122 69.3204 22.151 74.1465 26.6751 77.8959C31.1992 81.6454 36.5679 84.2017 42.3028 85.337C48.0377 86.4723 53.9606 86.1513 59.5434 84.4026C65.1263 82.654 70.1957 79.532 74.2998 75.315C74.485 75.0927 74.7136 74.9115 74.9712 74.783C75.2287 74.6544 75.5097 74.5812 75.7965 74.568C76.0832 74.5547 76.3696 74.6017 76.6376 74.706C76.9056 74.8103 77.1495 74.9696 77.354 75.1739C77.5584 75.3783 77.7189 75.6232 77.8256 75.8935C77.9322 76.1637 77.9826 76.4534 77.9736 76.7443C77.9646 77.0352 77.8964 77.3211 77.7733 77.584C77.6502 77.8469 77.4748 78.0812 77.2581 78.2722C73.6151 82.0483 69.2663 85.0505 64.4659 87.1032C59.6655 89.156 54.5097 90.2181 49.2998 90.2276Z" fill="#FF4343"/>
<path d="M48.0497 63.6131C47.7795 63.6219 47.5104 63.5739 47.2595 63.4721C47.0085 63.3703 46.781 63.2169 46.5913 63.0216L29.9247 46.1235C29.7294 45.9271 29.5744 45.6935 29.4686 45.4361C29.3629 45.1787 29.3084 44.9026 29.3084 44.6238C29.3084 44.3449 29.3629 44.0688 29.4686 43.8114C29.5744 43.554 29.7294 43.3204 29.9247 43.1241C30.3211 42.7343 30.8516 42.5164 31.4038 42.5164C31.956 42.5164 32.4865 42.7343 32.883 43.1241L48.0497 58.5436L82.008 24.1136C82.4003 23.7159 82.9324 23.4924 83.4872 23.4924C84.042 23.4924 84.574 23.7159 84.9663 24.1136C85.3586 24.5114 85.579 25.0508 85.579 25.6133C85.579 26.1758 85.3586 26.7153 84.9663 27.1131L49.5497 63.0216C49.3508 63.2161 49.1158 63.3686 48.8583 63.4701C48.6008 63.5717 48.3259 63.6203 48.0497 63.6131Z" fill="#FF4343"/>
</svg>
