<svg width="270" height="101" viewBox="0 0 270 101" fill="none" xmlns="http://www.w3.org/2000/svg">
<path d="M16.0136 59.0865H7.81939L6.38839 63.7644H0L9.09706 38.7237H14.7188L23.884 63.7644H17.4616L16.0136 59.0865ZM9.25038 54.4257H14.5826L11.908 45.7406L9.25038 54.4257Z" fill="#656980"/>
<path d="M45.4001 55.2856C45.3206 57.0284 44.855 58.5705 44.0032 59.912C43.1514 61.242 41.9532 62.2739 40.4087 63.0077C38.8755 63.7415 37.1208 64.1084 35.1446 64.1084C31.8851 64.1084 29.3184 63.0363 27.4445 60.8923C25.5706 58.7482 24.6336 55.7213 24.6336 51.8116V50.5733C24.6336 48.1197 25.0538 45.9756 25.8943 44.1412C26.746 42.2952 27.9669 40.8735 29.5569 39.876C31.1469 38.867 32.9868 38.3625 35.0765 38.3625C38.0861 38.3625 40.5052 39.1651 42.3337 40.7703C44.1622 42.364 45.2014 44.5654 45.4512 47.3744H39.4887C39.4433 45.8495 39.0629 44.7546 38.3474 44.0896C37.6319 43.4246 36.5416 43.0921 35.0765 43.0921C33.5887 43.0921 32.4984 43.6539 31.8056 44.7775C31.1129 45.9011 30.7494 47.6955 30.7154 50.1606V51.932C30.7154 54.6034 31.0447 56.5125 31.7034 57.659C32.3735 58.8056 33.5206 59.3788 35.1446 59.3788C36.5189 59.3788 37.5694 59.0521 38.2962 58.3985C39.0231 57.745 39.4092 56.7074 39.4547 55.2856H45.4001Z" fill="#656980"/>
<path d="M67.1888 43.3844H59.7442V63.7644H53.7647V43.3844H46.4563V38.7237H67.1888V43.3844Z" fill="#656980"/>
<path d="M76.0985 63.7644H70.136V38.7237H76.0985V63.7644Z" fill="#656980"/>
<path d="M89.8803 56.9539L94.8207 38.7237H101.499L93.1512 63.7644H86.6095L78.3301 38.7237H84.957L89.8803 56.9539Z" fill="#656980"/>
<path d="M118.705 53.1531H109.301V59.1209H120.408V63.7644H103.322V38.7237H120.442V43.3844H109.301V48.6643H118.705V53.1531Z" fill="#656980"/>
<path d="M123.454 63.7472V38.7065H129.978C132.647 38.7065 134.663 39.2569 136.026 40.3575C137.4 41.4468 138.087 43.0347 138.087 45.1215C138.087 46.6349 137.707 47.8904 136.946 48.8879C136.185 49.8854 135.112 50.5217 133.726 50.7969C135.294 51.0033 136.6 51.6912 137.644 52.8607C138.689 54.0187 139.212 55.3487 139.212 56.8507C139.212 58.9833 138.525 60.6687 137.15 61.907C135.788 63.1338 133.885 63.7472 131.443 63.7472H123.454ZM124.374 51.3816V62.8185H131.546C133.647 62.8185 135.294 62.2968 136.486 61.2534C137.69 60.1986 138.292 58.7425 138.292 56.8851C138.292 55.3028 137.713 54.0015 136.554 52.9811C135.396 51.9492 133.846 51.416 131.903 51.3816H124.374ZM124.374 50.4529H130.319C132.579 50.4529 134.283 50.0172 135.43 49.1459C136.577 48.263 137.15 46.8986 137.15 45.0527C137.15 41.4984 134.828 39.6925 130.183 39.6352H124.374V50.4529Z" fill="white"/>
<path d="M162.074 53.1015C162.074 55.2684 161.688 57.1889 160.915 58.8629C160.154 60.5254 159.064 61.8152 157.644 62.7325C156.225 63.6383 154.589 64.0912 152.738 64.0912C149.944 64.0912 147.684 63.0879 145.958 61.0815C144.232 59.075 143.368 56.3691 143.368 52.9639V49.3522C143.368 47.1967 143.749 45.282 144.51 43.608C145.282 41.9341 146.378 40.6442 147.798 39.7384C149.229 38.8212 150.864 38.3625 152.704 38.3625C154.555 38.3625 156.191 38.8212 157.61 39.7384C159.041 40.6442 160.143 41.9398 160.915 43.6252C161.688 45.2992 162.074 47.2082 162.074 49.3522V53.1015ZM161.154 49.3178C161.154 46.2909 160.393 43.866 158.871 42.043C157.349 40.2085 155.293 39.2913 152.704 39.2913C150.149 39.2913 148.11 40.2028 146.588 42.0258C145.066 43.8373 144.305 46.3081 144.305 49.4382V53.1015C144.305 55.0965 144.646 56.8621 145.328 58.3985C146.02 59.9234 147.003 61.0987 148.275 61.9242C149.547 62.7497 151.035 63.1624 152.738 63.1624C155.328 63.1624 157.377 62.2509 158.888 60.4279C160.398 58.6049 161.154 56.1169 161.154 52.9639V49.3178Z" fill="white"/>
<path d="M174.373 50.2465L182.38 38.7065H183.539L174.953 50.9689L183.862 63.7472H182.721L174.373 51.6912L165.992 63.7472H164.885L173.794 50.9689L165.208 38.7065H166.367L174.373 50.2465Z" fill="white"/>
</svg>
