<svg width="66" height="46" fill="none" xmlns="http://www.w3.org/2000/svg"><path d="M58.573 0c1.97 0 3.859.779 5.252 2.165A7.371 7.371 0 0 1 66 7.39v31.22c0 1.96-.782 3.84-2.175 5.226A7.446 7.446 0 0 1 58.573 46H7.427a7.46 7.46 0 0 1-5.252-2.164A7.358 7.358 0 0 1 0 38.61V7.39c0-1.96.783-3.84 2.175-5.225A7.446 7.446 0 0 1 7.427 0h51.146Zm0 4.927H7.427c-.657 0-1.286.26-1.75.721A2.457 2.457 0 0 0 4.95 7.39v31.22a2.47 2.47 0 0 0 2.476 2.463h51.146c.657 0 1.286-.26 1.75-.721a2.457 2.457 0 0 0 .726-1.742V7.39c0-.653-.26-1.28-.725-1.742a2.482 2.482 0 0 0-1.75-.721ZM15.68 31.203h34.659c.627 0 1.23.237 1.689.663a2.458 2.458 0 0 1-1.353 4.241l-.336.023H15.679a2.482 2.482 0 0 1-1.69-.663 2.459 2.459 0 0 1-.23-3.355c.396-.484.962-.8 1.583-.886l.337-.023h34.659-34.659Zm32.183-11.496c.875 0 1.715.346 2.334.962a3.276 3.276 0 0 1 0 4.645 3.309 3.309 0 0 1-4.668 0 3.276 3.276 0 0 1 0-4.645 3.31 3.31 0 0 1 2.334-.962Zm-19.788 0a3.31 3.31 0 0 1 2.334.962 3.276 3.276 0 0 1 0 4.645 3.309 3.309 0 0 1-4.668 0 3.276 3.276 0 0 1 0-4.645 3.309 3.309 0 0 1 2.334-.962Zm-9.903 0c.876 0 1.715.346 2.334.962a3.276 3.276 0 0 1 0 4.645 3.309 3.309 0 0 1-4.668 0 3.276 3.276 0 0 1 0-4.645 3.31 3.31 0 0 1 2.334-.962Zm19.805 0a3.31 3.31 0 0 1 2.334.962 3.276 3.276 0 0 1 0 4.645 3.31 3.31 0 0 1-4.668 0 3.276 3.276 0 0 1 0-4.645 3.309 3.309 0 0 1 2.334-.962ZM13.203 9.854a3.31 3.31 0 0 1 2.335.962 3.277 3.277 0 0 1 0 4.645 3.31 3.31 0 0 1-4.669 0 3.276 3.276 0 0 1 0-4.645 3.31 3.31 0 0 1 2.334-.962Zm9.886 0a3.31 3.31 0 0 1 2.334.962 3.276 3.276 0 0 1 0 4.645 3.309 3.309 0 0 1-4.668 0 3.276 3.276 0 0 1 0-4.645 3.31 3.31 0 0 1 2.334-.962Zm9.903 0a3.31 3.31 0 0 1 2.334.962 3.277 3.277 0 0 1 0 4.645 3.309 3.309 0 0 1-4.668 0 3.276 3.276 0 0 1 0-4.645 3.31 3.31 0 0 1 2.334-.962Zm9.902 0a3.31 3.31 0 0 1 2.334.962 3.277 3.277 0 0 1 0 4.645 3.309 3.309 0 0 1-4.668 0 3.276 3.276 0 0 1 0-4.645 3.31 3.31 0 0 1 2.334-.962Zm9.903 0a3.31 3.31 0 0 1 2.334.962 3.277 3.277 0 0 1 0 4.645 3.31 3.31 0 0 1-4.668 0 3.276 3.276 0 0 1 0-4.645 3.31 3.31 0 0 1 2.334-.962Z" fill="#EC7979"/></svg>