<svg width="74" height="74" fill="none" xmlns="http://www.w3.org/2000/svg"><path d="M28.523 55.136h16.95-16.95ZM37 4.355v3.627-3.627Zm23.084 9.561-2.565 2.565 2.565-2.565ZM69.645 37h-3.627 3.627ZM7.982 37H4.355h3.627Zm8.499-20.52-2.565-2.564 2.565 2.565Zm7.693 33.346a18.136 18.136 0 1 1 25.652 0l-1.988 1.984a12.238 12.238 0 0 0-3.584 8.655v1.926a7.254 7.254 0 0 1-14.508 0v-1.926c0-3.247-1.292-6.363-3.584-8.655l-1.988-1.984Z" stroke="#EC7979" stroke-width="6.833" stroke-linecap="round" stroke-linejoin="round"/></svg>