<svg width="44" height="66" fill="none" xmlns="http://www.w3.org/2000/svg"><path d="M10.73 65.811a2.329 2.329 0 0 1-1.118-1.018 2.394 2.394 0 0 1-.27-1.504l4.212-27.931H2.376a2.279 2.279 0 0 1-1.028-.215 2.32 2.32 0 0 1-.83-.655 2.4 2.4 0 0 1-.456-2.03L7.005 1.816c.122-.528.419-.996.84-1.326.422-.331.942-.504 1.474-.49h23.142a2.28 2.28 0 0 1 1 .228c.313.151.588.372.806.645a2.4 2.4 0 0 1 .463 2.004l-4.004 18.338h10.992c.434-.001.86.122 1.228.356.368.233.664.567.855.964a2.397 2.397 0 0 1-.254 2.357l-30.085 40.07a2.33 2.33 0 0 1-.793.742c-.318.18-.672.282-1.036.296a2.483 2.483 0 0 1-.902-.189ZM24.94 25.93 29.57 4.715H11.17L5.292 30.643H18.97l-3.68 24.231 21.8-28.945H24.94Z" fill="#EC7979"/></svg>